<?xml version="1.0" encoding="iso-8859-1"?>
<!-- Uploaded to: SVG Repo, www.svgrepo.com, Generator: SVG Repo Mixer Tools -->
<svg height="800px" width="800px" version="1.1" id="Layer_1" xmlns="http://www.w3.org/2000/svg" xmlns:xlink="http://www.w3.org/1999/xlink" 
	 viewBox="0 0 512 512" xml:space="preserve">
<circle style="fill:#79C9DB;" cx="256" cy="256" r="256"/>
<path style="fill:#99DBFF;" d="M256,512C114.615,512,0,397.385,0,256S114.615,0,256,0V512z"/>
<path style="fill:#637492;" d="M0.22,266.182C5.568,402.845,118.026,512,256,512s250.432-109.155,255.78-245.818H0.22z"/>
<path style="fill:#84A2D1;" d="M0.22,266.182C5.568,402.845,118.026,512,256,512V266.182H0.22z"/>
<path style="fill:#FEAB00;" d="M336.924,64.41c21.228,0,39.769-11.475,49.776-28.559C354.807,16.877,318.444,4.639,279.565,1.089
	c-0.191,1.862-0.304,3.745-0.304,5.657C279.26,38.593,305.076,64.41,336.924,64.41z"/>
<path style="fill:#39536F;" d="M217.783,266.182l-32.417,235.93C207.804,508.541,231.495,512,256,512s48.196-3.459,70.634-9.888
	l-32.417-235.93H217.783z"/>
<path style="fill:#4D5CAE;" d="M217.783,266.182l-32.417,235.93C207.804,508.541,231.495,512,256,512V266.182H217.783z"/>
<path style="fill:#AC4045;" d="M302.358,155.926c-62.82-37.895-148.857-66.992-226.007-66.992c-4.864,0-9.709,0.084-14.532,0.253
	C23.292,133.993,0,192.273,0,256c0,7.651,0.355,15.217,1.012,22.697h10.624h172.841c52.999-61.559,150.432-90.333,150.432-90.333
	C341.686,182.131,302.358,155.926,302.358,155.926z"/>
<path style="fill:#C26053;" d="M255.999,131.549c-55.35-25.306-120.141-42.615-179.648-42.615c-4.864,0-9.709,0.084-14.532,0.253
	C23.292,133.993,0,192.273,0,256c0,7.651,0.355,15.217,1.012,22.697h10.624h172.841L256,235.636L255.999,131.549z"/>
<path style="fill:#924045;" d="M486.609,144.761c-114.794-3.684-228.068,47.91-302.132,133.936h315.887h10.624
	C511.645,271.217,512,263.651,512,256C512,216.132,502.867,178.403,486.609,144.761z"/>
<path style="fill:#AC4045;" d="M255.999,214.353c-26.416,18.369-50.541,39.974-71.521,64.343H256L255.999,214.353z"/>
<g>
	<path style="fill:#D0D0D0;" d="M256,497.364c-8.033,0-14.545-6.512-14.545-14.545v-28.477c0-8.033,6.512-14.545,14.545-14.545
		c8.032,0,14.545,6.512,14.545,14.545v28.477C270.545,490.852,264.032,497.364,256,497.364z"/>
	<path style="fill:#D0D0D0;" d="M256,414.14c-8.033,0-14.545-6.512-14.545-14.545v-16.788c0-8.033,6.512-14.545,14.545-14.545
		c8.032,0,14.545,6.512,14.545,14.545v16.788C270.545,407.626,264.032,414.14,256,414.14z"/>
	<path style="fill:#D0D0D0;" d="M256,343.404c-8.033,0-14.545-6.512-14.545-14.545v-15.676c0-8.033,6.512-14.545,14.545-14.545
		c8.032,0,14.545,6.512,14.545,14.545v15.676C270.545,336.892,264.032,343.404,256,343.404z"/>
</g>
<g>
	<path style="fill:#FFFFFF;" d="M256,497.364c-8.033,0-14.545-6.512-14.545-14.545v-28.477c0-8.033,6.512-14.545,14.545-14.545
		V497.364z"/>
	<path style="fill:#FFFFFF;" d="M256,414.14c-8.033,0-14.545-6.512-14.545-14.545v-16.788c0-8.033,6.512-14.545,14.545-14.545
		V414.14z"/>
	<path style="fill:#FFFFFF;" d="M256,343.404c-8.033,0-14.545-6.512-14.545-14.545v-15.676c0-8.033,6.512-14.545,14.545-14.545
		V343.404z"/>
</g>
</svg>