<?xml version="1.0" encoding="iso-8859-1"?>
<!-- Uploaded to: SVG Repo, www.svgrepo.com, Generator: SVG Repo Mixer Tools -->
<svg fill="#000000" height="800px" width="800px" version="1.1" id="Layer_1" xmlns="http://www.w3.org/2000/svg" xmlns:xlink="http://www.w3.org/1999/xlink" 
	 viewBox="0 0 512 512" xml:space="preserve">
<g>
	<g>
		<path d="M403.098,187.733c-16.068-34.475-44.356-62.763-78.831-78.831V0H187.733v108.902
			c-34.475,16.068-62.763,44.356-78.831,78.831H0v136.533h108.902c16.068,34.475,44.356,62.763,78.831,78.831V512h136.533V403.098
			c34.475-16.068,62.763-44.356,78.831-78.831H512V187.733H403.098z M247.467,42.667c0-4.719,3.814-8.533,8.533-8.533
			s8.533,3.814,8.533,8.533V51.2c0,4.719-3.814,8.533-8.533,8.533s-8.533-3.814-8.533-8.533V42.667z M247.467,85.333
			c0-4.719,3.814-8.533,8.533-8.533s8.533,3.814,8.533,8.533V102.4c0,4.719-3.814,8.533-8.533,8.533s-8.533-3.814-8.533-8.533
			V85.333z M244.224,137.105c12.288-1.195,24.627-0.495,36.514,1.997c4.608,0.964,7.561,5.487,6.596,10.104
			c-0.845,4.019-4.395,6.775-8.346,6.775c-0.58,0-1.169-0.06-1.766-0.179c-10.266-2.159-21.052-2.714-31.351-1.707
			c-4.736,0.452-8.866-2.987-9.31-7.671C236.1,141.73,239.531,137.566,244.224,137.105z M164.855,178.756
			c7.953-9.378,17.254-17.451,27.648-23.97c3.968-2.509,9.25-1.306,11.767,2.679c2.5,3.994,1.306,9.259-2.688,11.767
			c-8.909,5.598-16.879,12.518-23.706,20.557c-1.698,1.997-4.096,3.021-6.519,3.021c-1.946,0-3.908-0.666-5.504-2.031
			C162.253,187.733,161.809,182.349,164.855,178.756z M51.2,264.533h-8.533c-4.719,0-8.533-3.814-8.533-8.533
			c0-4.719,3.814-8.533,8.533-8.533H51.2c4.719,0,8.533,3.814,8.533,8.533C59.733,260.719,55.919,264.533,51.2,264.533z
			 M102.4,264.533H85.333c-4.719,0-8.533-3.814-8.533-8.533c0-4.719,3.814-8.533,8.533-8.533H102.4c4.719,0,8.533,3.814,8.533,8.533
			C110.933,260.719,107.119,264.533,102.4,264.533z M145.86,271.821c-0.196,0.009-0.384,0.017-0.572,0.017
			c-4.454,0-8.209-3.456-8.508-7.97c-0.162-2.611-0.256-5.239-0.247-7.893c0-9.643,1.161-19.26,3.447-28.561
			c1.126-4.582,5.786-7.39,10.317-6.246c4.582,1.126,7.381,5.743,6.255,10.317c-1.963,7.979-2.953,16.222-2.953,24.516
			c-0.009,2.295,0.068,4.523,0.213,6.75C154.129,267.452,150.562,271.514,145.86,271.821z M187.861,343.962
			c-1.69,1.852-4.002,2.799-6.332,2.799c-2.048,0-4.087-0.734-5.726-2.21c-9.131-8.269-16.887-17.835-23.057-28.433
			c-2.364-4.07-0.99-9.293,3.089-11.665c4.062-2.381,9.293-0.99,11.665,3.081c5.282,9.079,11.93,17.271,19.763,24.371
			C190.754,335.07,191.027,340.454,187.861,343.962z M179.2,256c0-42.351,34.449-76.8,76.8-76.8c42.351,0,76.8,34.449,76.8,76.8
			c0,42.351-34.449,76.8-76.8,76.8C213.649,332.8,179.2,298.351,179.2,256z M264.533,469.333c0,4.719-3.814,8.533-8.533,8.533
			s-8.533-3.814-8.533-8.533V460.8c0-4.719,3.814-8.533,8.533-8.533s8.533,3.814,8.533,8.533V469.333z M264.533,426.667
			c0,4.719-3.814,8.533-8.533,8.533s-8.533-3.814-8.533-8.533V409.6c0-4.719,3.814-8.533,8.533-8.533s8.533,3.814,8.533,8.533
			V426.667z M259.951,375.398c-1.314,0.051-2.628,0.068-3.951,0.068c-10.982,0-21.879-1.493-32.393-4.446
			c-4.531-1.271-7.185-5.982-5.905-10.522c1.271-4.54,5.99-7.177,10.522-5.905c10.086,2.825,20.676,4.07,31.147,3.755
			c4.847-0.205,8.653,3.524,8.815,8.235C268.348,371.294,264.661,375.245,259.951,375.398z M341.854,339.072
			c-8.559,8.841-18.381,16.29-29.167,22.118c-1.297,0.691-2.688,1.024-4.053,1.024c-3.029,0-5.973-1.613-7.518-4.471
			c-2.244-4.147-0.691-9.327,3.448-11.571c9.259-5,17.681-11.383,25.02-18.961c3.285-3.405,8.687-3.465,12.066-0.205
			C345.045,330.291,345.122,335.693,341.854,339.072z M347.989,202.513c-2.739,0-5.427-1.314-7.083-3.755
			c-5.888-8.721-13.065-16.478-21.316-23.023c-3.695-2.927-4.318-8.294-1.382-11.989c2.927-3.686,8.303-4.318,11.981-1.382
			c9.634,7.637,17.997,16.666,24.866,26.846c2.637,3.908,1.613,9.207-2.295,11.853C351.292,202.044,349.636,202.513,347.989,202.513
			z M369.894,292.164c-1.152,3.644-4.514,5.965-8.132,5.965c-0.853,0-1.724-0.128-2.577-0.401
			c-4.497-1.425-6.989-6.221-5.564-10.709c3.174-10.01,4.779-20.446,4.779-31.019c0-4.489-0.29-9.028-0.879-13.474
			c-0.614-4.676,2.68-8.96,7.356-9.566c4.685-0.657,8.96,2.671,9.566,7.347c0.683,5.188,1.024,10.462,1.024,15.693
			C375.467,268.322,373.589,280.499,369.894,292.164z M426.667,264.533H409.6c-4.719,0-8.533-3.814-8.533-8.533
			c0-4.719,3.814-8.533,8.533-8.533h17.067c4.719,0,8.533,3.814,8.533,8.533C435.2,260.719,431.386,264.533,426.667,264.533z
			 M469.333,264.533H460.8c-4.719,0-8.533-3.814-8.533-8.533c0-4.719,3.814-8.533,8.533-8.533h8.533
			c4.719,0,8.533,3.814,8.533,8.533C477.867,260.719,474.052,264.533,469.333,264.533z"/>
	</g>
</g>
</svg>